<?xml version="1.0" encoding="UTF-8"?>
<!DOCTYPE svg PUBLIC "-//W3C//DTD SVG 1.1//EN" "http://www.w3.org/Graphics/SVG/1.1/DTD/svg11.dtd">
<svg xmlns="http://www.w3.org/2000/svg" xmlns:xlink="http://www.w3.org/1999/xlink" version="1.1" width="811px"
	height="812px" viewBox="-0.5 -0.5 811 812">
	<defs>
		<linearGradient x1="0%" y1="100%" x2="0%" y2="0%" id="mx-gradient-6600cc-1-d55f6f-1-s-0">
			<stop offset="0%" style="stop-color: rgb(213, 95, 111); stop-opacity: 1;" />
			<stop offset="100%" style="stop-color: rgb(102, 0, 204); stop-opacity: 1;" />
		</linearGradient>
		<linearGradient x1="0%" y1="0%" x2="0%" y2="100%" id="mx-gradient-00ffff-1-ffff99-1-s-0">
			<stop offset="0%" style="stop-color: rgb(0, 255, 255); stop-opacity: 1;" />
			<stop offset="100%" style="stop-color: rgb(255, 255, 153); stop-opacity: 1;" />
		</linearGradient>
	</defs>
	<g>
		<rect x="4" y="4" width="800" height="800" rx="120" ry="120" fill-opacity="0.9" fill="#000000" stroke="none"
			pointer-events="all" transform="translate(2,3)" opacity="0.25" />
		<rect x="4" y="4" width="800" height="800" rx="120" ry="120" fill-opacity="0.9"
			fill="url(#mx-gradient-6600cc-1-d55f6f-1-s-0)" stroke="none" pointer-events="all" />
		<ellipse cx="404.5" cy="404.5" rx="162.5" ry="162.5" fill-opacity="0.9" fill="#e37d93" stroke="none"
			pointer-events="all" />
		<rect x="282" y="363" width="244" height="82" fill="none" stroke="none" pointer-events="all"
			transform="translate(2,3)" opacity="0.25" />
		<rect x="282" y="363" width="244" height="82" fill="none" stroke="none" pointer-events="all" />
		<path
			d="M 415.99 420.96 C 418.83 427.2 422.9 431.83 427.69 435.61 C 435.67 441.84 444.21 444.65 453.08 444.96 L 480.34 444.96 C 494.27 444.34 504.41 437.99 511.31 430.08 C 521.09 419.33 526 398.96 515.14 382.01 C 508.24 371.49 496.34 363.43 480.1 363 L 452.8 363 C 444.69 363 434.24 366.78 428.37 371.57 C 421.9 376.71 418.63 381.74 416.27 386.33 L 436.63 386.33 C 440.42 382.71 445.53 379.63 453.47 379.32 L 480.02 379.32 C 487.24 379.71 494.03 382.09 499.78 389.65 C 506.16 398.96 505.56 410.02 499.38 418.32 C 494.83 423.77 489.08 428.02 480.02 428.44 L 453.91 428.44 C 445.81 428.44 439.86 424.39 436.35 420.96 Z M 459.42 412.51 C 464.09 412.51 467.72 408.46 467.72 404.06 C 467.72 398.99 463.49 394.98 459.3 394.98 L 347.1 394.98 C 343.35 394.98 339 399.07 339 403.82 C 339 409.04 343.35 412.51 347.22 412.51 Z M 390.49 421.55 C 387.3 428.17 382.47 434.37 374.72 439.04 C 368.26 442.74 361.15 445 352.61 444.96 L 326.58 444.96 C 312.81 444.96 296.49 437.13 288.95 421.28 C 284.51 410.64 282 398.45 291.42 382.32 C 299.2 369.74 313.81 363 325.47 363 L 354.49 363 C 362.87 363.51 370.77 366.23 378.04 371.61 C 383.86 376.09 387.77 380.96 390.45 386.33 L 370.17 386.33 C 365.78 381.93 358.96 379.24 352.81 379.32 L 326.98 379.32 C 321.4 379.32 312.53 382.05 306.71 390.31 C 299.08 402.19 303.63 412.47 305.79 416.25 C 311.3 425.09 319.2 427.98 326.7 428.44 L 354.25 428.44 C 360.83 428.02 365.9 425.41 370.13 421.55 Z"
			fill="#000000" stroke="none" pointer-events="all" transform="translate(2,3)" opacity="0.25" />
		<path
			d="M 415.99 420.96 C 418.83 427.2 422.9 431.83 427.69 435.61 C 435.67 441.84 444.21 444.65 453.08 444.96 L 480.34 444.96 C 494.27 444.34 504.41 437.99 511.31 430.08 C 521.09 419.33 526 398.96 515.14 382.01 C 508.24 371.49 496.34 363.43 480.1 363 L 452.8 363 C 444.69 363 434.24 366.78 428.37 371.57 C 421.9 376.71 418.63 381.74 416.27 386.33 L 436.63 386.33 C 440.42 382.71 445.53 379.63 453.47 379.32 L 480.02 379.32 C 487.24 379.71 494.03 382.09 499.78 389.65 C 506.16 398.96 505.56 410.02 499.38 418.32 C 494.83 423.77 489.08 428.02 480.02 428.44 L 453.91 428.44 C 445.81 428.44 439.86 424.39 436.35 420.96 Z M 459.42 412.51 C 464.09 412.51 467.72 408.46 467.72 404.06 C 467.72 398.99 463.49 394.98 459.3 394.98 L 347.1 394.98 C 343.35 394.98 339 399.07 339 403.82 C 339 409.04 343.35 412.51 347.22 412.51 Z M 390.49 421.55 C 387.3 428.17 382.47 434.37 374.72 439.04 C 368.26 442.74 361.15 445 352.61 444.96 L 326.58 444.96 C 312.81 444.96 296.49 437.13 288.95 421.28 C 284.51 410.64 282 398.45 291.42 382.32 C 299.2 369.74 313.81 363 325.47 363 L 354.49 363 C 362.87 363.51 370.77 366.23 378.04 371.61 C 383.86 376.09 387.77 380.96 390.45 386.33 L 370.17 386.33 C 365.78 381.93 358.96 379.24 352.81 379.32 L 326.98 379.32 C 321.4 379.32 312.53 382.05 306.71 390.31 C 299.08 402.19 303.63 412.47 305.79 416.25 C 311.3 425.09 319.2 427.98 326.7 428.44 L 354.25 428.44 C 360.83 428.02 365.9 425.41 370.13 421.55 Z"
			fill="#505050" stroke="none" pointer-events="all" />
		<path
			d="M 729 404 C 729 554.27 625.98 684.94 479.87 720.02 C 333.75 755.1 182.64 685.44 114.42 551.55 C 46.2 417.66 78.67 254.46 192.93 156.87 C 307.19 59.28 473.46 52.74 595.03 141.07 L 499.52 272.53 C 438.73 228.37 355.6 231.64 298.46 280.43 C 241.33 329.23 225.1 410.83 259.21 477.77 C 293.32 544.72 368.88 579.55 441.93 562.01 C 514.99 544.47 566.5 479.13 566.5 404 Z"
			fill="url(#mx-gradient-00ffff-1-ffff99-1-s-0)" stroke="none" pointer-events="all" />
	</g>
</svg>
